<?xml version="1.0" encoding="utf-8"?>
<svg version="1.2" baseProfile="tiny" id="Ebene_1" xmlns="http://www.w3.org/2000/svg" xmlns:xlink="http://www.w3.org/1999/xlink"
	 x="0px" y="0px" width="56px" height="56px" viewBox="0 0 56 56" xml:space="preserve">
<rect fill="#39B54A" width="56" height="56"/>
<g>
	<path fill="#FFFFFF" d="M15.83,15.828c5.14,0,9.698,0.419,13.674,1.255c3.975,0.838,7.159,1.914,9.55,3.229
		c2.39,1.315,4.379,2.9,5.964,4.752c1.582,1.854,2.688,3.692,3.317,5.515c0.628,1.824,1.046,3.767,1.254,5.828
		c0.209,2.062,0.224,3.826,0.046,5.291c-0.181,1.465-0.374,2.914-0.583,4.349c-0.211,1.435-0.314,2.302-0.314,2.6L56,56h-2.33
		l-6.276-6.366c-0.241,0-1.063,0.134-2.468,0.403c-1.404,0.269-2.615,0.419-3.63,0.448c-1.018,0.031-2.287-0.014-3.812-0.134
		c-1.523-0.12-3.079-0.523-4.662-1.211c-1.584-0.688-3.154-1.629-4.708-2.825c-1.554-1.255-2.854-2.569-3.9-3.944
		c-1.047-1.375-1.928-3.034-2.646-4.978c-0.718-1.941-1.286-3.767-1.704-5.47c-0.418-1.703-1.017-4.169-1.793-7.398
		C17.294,21.298,16.547,18.4,15.83,15.828z M23.003,19.953c-1.376-0.597-2.092-0.837-2.152-0.717
		c-0.06,0.121,0.209,0.418,0.808,0.896l0.807,0.627c1.314,0.896,2.511,2.004,3.587,3.318c1.076,1.315,1.838,2.392,2.287,3.229
		c0.448,0.837,1.21,2.241,2.286,4.214c4.244,8.19,8.547,13.212,12.912,15.064c2.271,0.956,3.406,1.405,3.406,1.345
		c0.061-0.059-0.298-0.359-1.076-0.896c-0.776-0.478-1.374-0.897-1.791-1.256c-2.213-1.613-4.933-5.499-8.16-11.656
		c-0.838-1.554-1.435-2.646-1.793-3.273c-0.359-0.627-0.973-1.599-1.838-2.914c-0.868-1.314-1.676-2.346-2.422-3.093
		c-0.748-0.747-1.72-1.584-2.915-2.511C25.752,21.403,24.438,20.612,23.003,19.953z"/>
</g>
</svg>
