<?xml version="1.0" encoding="utf-8"?>
<!-- Generator: Adobe Illustrator 16.0.0, SVG Export Plug-In . SVG Version: 6.00 Build 0)  -->
<!DOCTYPE svg PUBLIC "-//W3C//DTD SVG 1.1//EN" "http://www.w3.org/Graphics/SVG/1.1/DTD/svg11.dtd">
<svg version="1.1" id="Ebene_1" xmlns="http://www.w3.org/2000/svg" xmlns:xlink="http://www.w3.org/1999/xlink" x="0px" y="0px"
	 width="32px" height="32px" viewBox="0 0 32 32" enable-background="new 0 0 32 32" xml:space="preserve">
<rect fill="#2B2B2B" width="32" height="32"/>
<g>
	<path fill="none" stroke="#6EA84F" stroke-width="2" stroke-linecap="round" stroke-linejoin="round" d="M14.415,16.791
		c1.312,1.753,3.794,2.11,5.545,0.801c0.152-0.113,0.295-0.239,0.43-0.371l2.377-2.376c1.521-1.574,1.477-4.083-0.098-5.603
		c-1.534-1.482-3.969-1.482-5.503,0l-1.363,1.354"/>
	<path fill="none" stroke="#6EA84F" stroke-width="2" stroke-linecap="round" stroke-linejoin="round" d="M17.586,15.208
		c-1.312-1.752-3.795-2.11-5.546-0.801c-0.152,0.114-0.295,0.239-0.429,0.371l-2.377,2.376c-1.521,1.574-1.476,4.084,0.098,5.604
		c1.535,1.481,3.97,1.481,5.504,0l1.356-1.354"/>
</g>
</svg>
